<svg xmlns="http://www.w3.org/2000/svg" xmlns:xlink="http://www.w3.org/1999/xlink" width="500" zoomAndPan="magnify" viewBox="0 0 375 374.999991" height="500" preserveAspectRatio="xMidYMid meet" version="1.0">
    <defs>
        <clipPath id="id1">
            <path d="M 59.15625 9.699219 L 315.65625 9.699219 L 315.65625 323.199219 L 59.15625 323.199219 Z M 59.15625 9.699219 " clip-rule="nonzero" />
        </clipPath>
        <clipPath id="id2">
            <path d="M 175.757812 261.792969 L 199.007812 261.792969 L 199.007812 363.792969 L 175.757812 363.792969 Z M 175.757812 261.792969 " clip-rule="nonzero" />
        </clipPath>
    </defs>
    <path fill="rgb(100%, 100%, 100%)" d="M 100.753906 48.601562 L 274.003906 48.601562 L 274.003906 246.597656 L 100.753906 246.597656 L 100.753906 48.601562 " fill-opacity="1" fill-rule="nonzero" />
    <g clip-path="url(#id1)">
        <path fill="rgb(10.978699%, 19.60907%, 23.919678%)" d="M 171.757812 96.609375 C 175.019531 91.414062 180.804688 87.960938 187.40625 87.960938 C 194.007812 87.960938 199.792969 91.414062 203.054688 96.609375 L 212.101562 96.609375 C 215.515625 96.609375 218.257812 93.898438 218.257812 90.449219 C 218.257812 87.035156 215.441406 84.289062 212.101562 84.289062 L 208.914062 84.289062 L 218.667969 74.898438 L 227.679688 77.164062 L 226.121094 83.324219 L 240.507812 86.886719 L 241.398438 83.324219 L 268.953125 90.1875 L 271.917969 78.203125 L 244.367188 71.335938 L 245.292969 67.738281 L 230.90625 64.136719 L 229.421875 70.074219 L 218.667969 67.476562 C 217.480469 67.21875 216.21875 67.550781 215.292969 68.367188 L 198.121094 84.289062 L 176.613281 84.289062 L 159.480469 68.367188 C 158.554688 67.550781 157.292969 67.21875 156.070312 67.476562 L 145.351562 70.039062 L 143.871094 64.136719 L 129.519531 67.738281 L 130.40625 71.335938 L 102.855469 78.203125 L 105.859375 90.1875 L 133.410156 83.324219 L 134.300781 86.886719 L 148.652344 83.324219 L 147.132812 77.164062 L 156.070312 74.898438 L 165.859375 84.289062 L 162.707031 84.289062 C 159.296875 84.289062 156.550781 86.996094 156.550781 90.449219 C 156.550781 93.863281 159.371094 96.609375 162.707031 96.609375 Z M 169.273438 102.804688 L 150.394531 102.804688 L 150.394531 121.324219 L 156.550781 149.601562 L 156.550781 195.429688 L 166.417969 195.429688 L 166.417969 142.847656 C 169.011719 138.652344 174.761719 134.015625 187.40625 134.015625 C 200.015625 134.015625 205.761719 138.617188 208.394531 142.847656 L 208.394531 195.429688 L 218.257812 195.429688 L 218.257812 149.601562 L 224.414062 121.324219 L 224.414062 102.804688 L 205.539062 102.804688 C 205.800781 103.992188 205.910156 105.21875 205.910156 106.515625 C 205.910156 116.722656 197.640625 125.035156 187.40625 125.035156 C 177.171875 125.035156 168.902344 116.722656 168.902344 106.515625 C 168.902344 105.21875 169.011719 103.992188 169.273438 102.804688 Z M 187.40625 323.199219 C 187.40625 323.199219 59.246094 251.539062 59.246094 137.949219 C 59.246094 67.105469 116.613281 9.699219 187.40625 9.699219 C 258.199219 9.699219 315.566406 67.105469 315.566406 137.949219 C 315.566406 251.539062 187.40625 323.199219 187.40625 323.199219 Z M 175.054688 158.320312 L 175.054688 232.503906 C 175.054688 239.21875 180.582031 244.824219 187.40625 244.824219 C 194.265625 244.824219 199.753906 239.292969 199.753906 232.503906 L 199.753906 158.320312 C 199.753906 151.605469 194.230469 146.039062 187.40625 146.039062 C 180.542969 146.039062 175.054688 151.53125 175.054688 158.320312 Z M 175.054688 158.320312 " fill-opacity="1" fill-rule="evenodd" />
    </g>
    <g clip-path="url(#id2)">
        <path fill="rgb(10.978699%, 19.60907%, 23.919678%)" d="M 175.761719 363.789062 L 175.761719 261.792969 L 199.019531 261.792969 L 199.019531 363.789062 Z M 175.761719 363.789062 " fill-opacity="1" fill-rule="nonzero" />
    </g>
</svg>